#!OML:ASF F:\VICON\USERDATA\INSTALL\rory3\rory3.ASF
:FULLY-SPECIFIED
:DEGREES
51
root 0.27129745654672033 17.808394354755386 39.29534370606147 -4.528780427499888 -2.922919861151536 -0.20075107089455613
lfemur -9.452134827272996 -3.588295998451649 -22.506436138258024
ltibia 51.570200110773115
lfoot -12.19767234455335 -4.752898726752422
ltoes -1.629080021522979
rfemur -24.520346836434456 -1.6375570410233444 25.51888731153091
rtibia 81.28441668229303
rfoot -11.283549295085638 0.022825552212677458
rtoes 11.817373898457259
lowerback nan -0.25658035662459605 -1.926846476059519
upperback 0.5776127602374601 -0.020115072490472063 0.7857656533687317
thorax -5.52927026982743 0.1166157116436444 2.2458139492971823
lowerneck -15.136880468400083 -2.5670805723426176 -2.164663672992955
upperneck 20.238856497187385 -2.7270965199384904 1.4993528764251702
head 8.89689376408954 -1.4744014111620094 0.47388865863889446
lclavicle -1.117608100924403e-15 -3.749173725122465e-15
lhumerus -30.057247823932027 4.844265620273216 78.31425198495194
lradius 19.5482200303058
lwrist 7.584687053840085
lhand -27.171373849069276 17.929880923572863
lfingers nan
lthumb -0.5473489424259752 47.836028274297696
rclavicle 7.865182850026856e-16 -9.041538698546808e-16
rhumerus -26.839597577703323 -17.886392465378155 -80.87641268810341
rradius 24.98132823966494
rwrist 7.143695805984525
rhand -16.3495474300818 nan
rfingers nan
rthumb 9.565163800476718 -10.666638835209007
52
root 0.24778436420551123 17.809008660983725 38.84262097536039 -4.134500425997 -2.016330737642197 0.49804935240234993
lfemur -6.386508792444274 -2.7162944267536693 -23.630382034338957
ltibia 49.956866762032405
lfoot -12.433515832747535 -4.654177002687494
ltoes -2.4760654004428924
rfemur -25.761449785823338 -1.2299176453368594 24.74918005692303
rtibia 71.15015053607146
rfoot -12.631576630701268 -1.017715921634755
rtoes 7.795506173955081
lowerback nan -0.6860742898187131 -2.987068175709939
upperback 0.4981135256675333 -0.7205414668939261 0.7426921635194269
thorax -5.6312436004626205 -0.22482102317483166 2.909143603702023
lowerneck -15.536283570817673 -2.4397933111930428 -2.43675229275656
upperneck 20.191077934303234 -2.487373594497975 1.7920317285579377
head 8.92490445288626 -1.3760987045242168 0.6402223144698268
lclavicle -1.4943917938729453e-14 -1.23569829987849e-14
lhumerus -27.418639487491674 4.222516614007617 78.06389639697545
lradius 20.336254915674186
lwrist 5.786161468487015
lhand -25.77600329708466 22.19240597453478
lfingers nan
lthumb 0.8268680827294137 52.15983903919026
rclavicle -1.2910878779548282e-14 -9.375820013077435e-15
rhumerus -27.77979162720376 -17.275897216377718 -80.83507779276093
rradius 24.756384653635227
rwrist 6.07726183812526
rhand -17.204854672157452 nan
rfingers nan
rthumb 8.794575326468426 -6.658422158019905
53
root 0.20964057819682627 17.81470961931465 39.561421944373194 -3.4593208412365093 -1.35512193194819 0.374420784908279
lfemur -3.1615027380514977 -2.8665493172650134 -23.463877124599733
ltibia 47.938554001160774
lfoot -12.484675719340396 -4.765672181571741
ltoes -2.3255768749635686
rfemur -25.81152951425137 0.3084729436699276 24.806329691798634
rtibia 58.444147847371916
rfoot -10.918218081238473 -3.4610317251729987
rtoes 7.617646922583013
lowerback nan -0.9710622887685654 -3.008488470616915
upperback 0.438708545915183 -1.099013348569979 0.9920749532696642
thorax -5.302148461233474 -0.43739709881666 3.0868825230095878
lowerneck -15.534798364896709 -2.6972873165869546 -2.355854296557754
upperneck 19.985255977723767 -2.966749741410611 1.875971969012667
head 8.851850043737759 -1.557464807859334 0.6142762548281713
lclavicle -2.09559478601982e-14 -1.938832933301409e-14
lhumerus -25.439177143405793 2.9519723952351073 78.05861588537155
lradius 21.747337763057683
lwrist 6.805555401987679
lhand -24.2944868143499 23.275322250317807
lfingers nan
lthumb 2.2234343595638193 53.25296935380017
rclavicle -1.9056250145286024e-14 -1.6679307305400428e-14
rhumerus -29.13109783627709 -18.445096217000128 -80.00065901579573
rradius 24.97116974494436
rwrist 7.300783424133099
rhand -16.139343091808293 nan
rfingers nan
rthumb 9.825529819638293 -11.211486860421456
54
root 0.1674565644943314 17.807446820270812 39.80242497580709 -2.648437318269656 -0.48462405570256895 0.5104080373679198
lfemur 0.15975768824110226 -2.5906608636036754 -23.072291524162974
ltibia 45.34025700050856
lfoot -12.51437223547398 -6.041054198427499
ltoes -4.022176534580574
rfemur -25.086375551785984 2.756763723822434 23.76891907002703
rtibia 44.59988279127937
rfoot -9.691080286744759 -6.931392176947474
rtoes 4.767482730864697
lowerback nan -1.4070900275903162 -3.102490503028805
upperback 0.17237088323789873 -1.6994447097032428 1.4202896963111733
thorax -5.121750059452547 -0.7548431039056588 3.5302538285061695
lowerneck -15.908021492351997 -2.6868538680096776 -2.6639331636351744
upperneck 20.056416470010774 -2.9531582533586134 2.156234807482636
head 8.94666320918676 -1.5506366468508914 0.7281975794873411
lclavicle 1.2313997552724034e-14 -4.677116948270749e-15
lhumerus -23.6592900141544 2.7997366395196814 77.96550539054716
lradius 22.86822899012529
lwrist 7.409857882458754
lhand -29.486206177792027 21.07135699952446
lfingers nan
lthumb -2.857974545857018 50.88393451316693
rclavicle 1.3938118925713634e-14 -2.295501738397587e-15
rhumerus -30.324560187083495 -18.267795209772622 -79.49699527722369
rradius 24.95765604174169
rwrist 6.844576564278418
rhand -15.856566527866898 nan
rfingers nan
rthumb 10.10491959326875 -9.747200131531297
55
root 0.11648988909997926 17.756267553626746 40.75484117377351 -2.2218455701106583 -0.011048023906777615 1.177336940768475
lfemur 3.6378758938991993 -1.559748371048812 -23.19468218505259
ltibia 43.711484838461445
lfoot -13.045295336284795 -7.273772301437212
ltoes -8.704834160394338
rfemur -23.639115583009684 6.896727556603512 20.868722215882208
rtibia 32.2587425371782
rfoot -11.213351885015584 -10.993985737502125
rtoes 7.19150090815132
lowerback nan -1.5236463051113525 -3.8758441933456975
upperback 0.03386913473424415 -1.953635938474194 1.404739997501013
thorax -4.88976014088471 -0.8874768072346003 3.89439086349687
lowerneck -15.523567888554064 -2.8389736306341113 -2.5407229926651826
upperneck 19.845128951027817 -3.2324497593980484 2.103209135859543
head 8.83611436731471 -1.6640764981033884 0.6726078651815942
lclavicle 4.1607498645546175e-15 -3.986693657852864e-15
lhumerus -22.003808970977254 2.3351714581857212 77.75770915596162
lradius 24.100201213376934
lwrist 9.74561755392693
lhand -29.013064483287337 16.92555179581054
lfingers nan
lthumb -2.3970553812112128 46.80624801023454
rclavicle 6.241797255060443e-15 -1.3469380330480344e-15
rhumerus -31.52568685046135 -20.03712723460254 -78.30810087987474
rradius 24.05651761766836
rwrist 8.027058857707964
rhand -16.749659968497653 nan
rfingers nan
rthumb 9.25476378562519 -10.53742970639085
56
root 0.04966325790458781 17.702173560780718 41.61087083153649 -2.0979989081755583 0.5041243400975963 1.2118129071276167
lfemur 5.9935699998100915 -2.317925403147054 -22.604760906660214
ltibia 44.238622897290796
lfoot -12.350757188477937 -8.961148934938748
ltoes -8.374710275644853
rfemur -22.449340883322733 8.42089502210689 20.144762065653904
rtibia 26.702023570766002
rfoot -13.661057588034092 -10.041712879080468
rtoes 5.329375908562291
lowerback nan -1.653727360626525 -3.5233390031013663
upperback -0.11885490873281206 -2.14591312331817 1.6821245551297401
thorax -5.16365585049347 -0.9797271199539318 3.9050412228021765
lowerneck -15.915302900586592 -2.9231744119803547 -2.6179819870292484
upperneck 19.967243026439196 -3.382664319964841 2.28330491215975
head 8.945476585895797 -1.7110454602089091 0.7159273131205823
lclavicle -4.793574819308331e-14 3.948826628509674e-15
lhumerus -20.849250710073072 2.139032318961051 77.86524253388781
lradius 24.347791032675037
lwrist 9.719295455453217
lhand -30.88143336548875 14.50897463592997
lfingers nan
lthumb -4.1710718197861585 44.408570666304456
rclavicle -4.523958796153e-14 7.098730981384355e-15
rhumerus -32.75079327035312 -21.292821912726403 -77.1586567261456
rradius 23.208192541626957
rwrist 8.315705603041135
rhand -16.97671919021269 nan
rfingers nan
rthumb 9.04338022272125 -7.121260991155559
57
root -0.012940050343169585 17.632074378733453 42.169541104706376 -2.2986189618572777 0.19951363708309566 1.693464400981341
lfemur 8.530931720107548 -2.8604314329158615 -23.152325493357303
ltibia 45.726151094735386
lfoot -11.848181825911684 -9.479696890175758
ltoes -10.420983689792127
rfemur -23.408653886564665 3.880147795191344 21.92273692378949
rtibia 32.06475654213327
rfoot -9.661610022364636 -2.6212364966291566
rtoes 8.023686869301939
lowerback nan -1.5393883785525806 -3.7964050956139292
upperback 0.10364599973663055 -1.9299980586837824 1.5653811596226974
thorax -4.800935736720555 -0.9352683396565628 3.8014500811424305
lowerneck -16.672366816510007 -2.9957990296065318 -2.6610747573096747
upperneck 20.080021226687617 -3.497917874738075 2.3486030264288575
head 9.095483994572847 -1.7431738480124173 0.7204208491166118
lclavicle -2.0218165221517587e-16 -1.1886560609279598e-14
lhumerus -20.16348163711819 2.5329636920267102 77.97671280892979
lradius 24.69401078094671
lwrist 9.060240886049886
lhand -32.38474618190533 12.538926557856731
lfingers nan
lthumb -5.590567859200468 42.433768163876906
rclavicle 3.2957668236710195e-15 -8.321906292439308e-15
rhumerus -33.21744249778735 -22.700019399325043 -76.35180510413707
rradius 21.96559597012287
rwrist 8.825347479074406
rhand -17.970219041227644 nan
rfingers nan
rthumb 8.070992017948516 -10.005984864011927
58
root -0.10390243429574003 17.63244284142135 42.59908648121863 -2.5484935672970987 0.5171637551570925 1.7779175694486402
lfemur 10.45737385061224 -4.1569298722225785 -23.400104247911905
ltibia 47.73673332246055
lfoot -6.927885617636341 -11.283044266299598
ltoes -14.196354683855796
rfemur -23.292467643966575 3.3866162865658396 22.703606151895187
rtibia 37.89289647082311
rfoot -3.671488791023333 -0.966406665056665
rtoes 6.0777284246618155
lowerback nan -1.663963144024171 -3.68764324986802
upperback -0.06303492895283776 -2.073690974960206 1.518826116015642
thorax -4.799990494789448 -1.0066499591087101 3.689727901284887
lowerneck -16.63115520626609 -2.827323173861781 -2.6243625842827685
upperneck 20.361062540330323 -3.2583428281586317 2.2307655393226398
head 9.209285124521685 -1.651154369635864 0.6946762023876576
lclavicle 9.2403630866649e-15 -1.949560360437098e-14
lhumerus -21.31946661715549 3.165478863901325 78.26021026533898
lradius 25.548115303251745
lwrist 9.052517925837744
lhand -31.463359748880592 14.97297571793888
lfingers nan
lthumb -4.679522069190184 44.92441954059125
rclavicle 1.2520705250486184e-14 -1.6069105503957013e-14
rhumerus -34.54795015700179 -24.62785458538287 -74.76448816521479
rradius 20.769456362730736
rwrist 10.641731928496554
rhand -17.50296307360188 nan
rfingers nan
rthumb 8.483047168909655 -9.881082898104916
